{"title":"Blade.Runner.2049.2017.1080p.6CH.BluRay.HEVC.x265-HETeam","magnet":"magnet:?xt=urn:btih:c65e8538c2df6c1d73f21c06faae26921f456bda&dn=Blade.Runner.2049.2017.1080p.6CH.BluRay.HEVC.x265-HETeam&tr=udp%3A%2F%2Ftracker.leechers-paradise.org%3A6969&tr=udp%3A%2F%2Fzer0day.ch%3A1337&tr=udp%3A%2F%2Fopen.demonii.com%3A1337&tr=udp%3A%2F%2Ftracker.coppersurfer.tk%3A6969&tr=udp%3A%2F%2Fexodus.desync.com%3A6969","uploader":"makintos13","categoryP":"video","categoryS":"hd___movies","size":"2443987283","seeders":"48","leechers":"60","description":"screens:\r\n <a href=\"\nhttps://imgmak.com/mtq\" rel=\"nofollow\" target=\"_NEW\">\nhttps://imgmak.com/mtq</a>\r\n <a href=\"\nhttps://imgmak.com/mtt\" rel=\"nofollow\" target=\"_NEW\">\nhttps://imgmak.com/mtt</a>\r\n <a href=\"\nhttps://imgmak.com/mt2\" rel=\"nofollow\" target=\"_NEW\">\nhttps://imgmak.com/mt2</a>\r\n\r\nMediaInfo : \r\n\r\nVideo \r\nID                          : 2 \r\nFormat                      : HEVC \r\nFormat/Info                 : High Efficiency Video Coding \r\nFormat profile              : <a href=\"/cdn-cgi/l/email-protection\" class=\"__cf_email__\" data-cfemail=\"6528040c0b252951\">[email&#xA0;protected]</a>@Main \r\nCodec ID                    : V_MPEGH/ISO/HEVC \r\nDuration                    : 2 h 43 min \r\nBit rate                    : 1 800 kb/s \r\nWidth                       : 1 920 pixels \r\nHeight                      : 800 pixels \r\nDisplay aspect ratio        : 2.40:1 \r\nFrame rate mode             : Constant \r\nFrame rate                  : 23.976 (24000/1001) FPS \r\nColor space                 : YUV \r\nChroma subsampling          : 4:2:0 \r\nBit depth                   : 8 bits \r\nBits/(Pixel*Frame)          : 0.044 \r\nStream size                 : 1.83 GiB (89%) \r\n\r\n\r\nAudio \r\nID                          : 1 \r\nFormat                      : AAC \r\nFormat/Info                 : Advanced Audio Codec \r\nFormat profile              : HE-AAC / LC \r\nCodec ID                    : A_AAC \r\nDuration                    : 2 h 43 min \r\nBit rate                    : 192 kb/s \r\nChannel(s)                  : 6 channels \r\n\r\n\r\nText \r\nID                          : 3 \r\nFormat                      : UTF-8 \r\nCodec ID                    : S_TEXT/UTF8 \r\nCodec ID/Info               : UTF-8 Plain Text \r\nDuration                    : 2 h 32 min \r\nBit rate                    : 23 b/s \r\nCount of elements           : 975 \r\nStream size                 : 26.7 KiB (0%) \r\n\r\n\r\n\r\nBlade.Runner.2049.2017.1080p.6CH.BluRay.HEVC.x265-HETeam","last_updated":"2018-01-04T12:04:13.303Z","parsed":{"xt":"urn:btih:c65e8538c2df6c1d73f21c06faae26921f456bda","dn":"Blade.Runner.2049.2017.1080p.6CH.BluRay.HEVC.x265-HETeam","tr":["udp://exodus.desync.com:6969","udp://open.demonii.com:1337","udp://tracker.coppersurfer.tk:6969","udp://tracker.leechers-paradise.org:6969","udp://zer0day.ch:1337"],"infoHash":"c65e8538c2df6c1d73f21c06faae26921f456bda","infoHashBuffer":{"type":"Buffer","data":[198,94,133,56,194,223,108,29,115,242,28,6,250,174,38,146,31,69,107,218]},"name":"Blade.Runner.2049.2017.1080p.6CH.BluRay.HEVC.x265-HETeam","announce":["udp://exodus.desync.com:6969","udp://open.demonii.com:1337","udp://tracker.coppersurfer.tk:6969","udp://tracker.leechers-paradise.org:6969","udp://zer0day.ch:1337"],"urlList":[]}}